<svg viewBox="0 0 320 180" fill="none" xmlns="http://www.w3.org/2000/svg">
  <ellipse cx="80" cy="165" rx="42" ry="4" fill="#94A3B8" opacity="0.4"/>
  <ellipse cx="240" cy="165" rx="42" ry="4" fill="#94A3B8" opacity="0.4"/>
  <g transform="translate(55, 35)">
    <circle cx="25" cy="18" r="14" fill="#FF9900"/>
    <path d="M 5 50 Q 25 38, 45 50 L 41 100 Q 41 107, 34 107 L 16 107 Q 9 107, 9 100 Z" fill="#FF9900"/>
    <rect x="11" y="60" width="28" height="22" rx="2.5" fill="#0F766E" stroke="#fff" stroke-width="2"/>
    <line x1="11" y1="68" x2="39" y2="68" stroke="#fff" stroke-width="1"/>
    <line x1="25" y1="60" x2="25" y2="68" stroke="#fff" stroke-width="1"/>
  </g>
  <path d="M 130 80 Q 160 50, 190 80" stroke="#FF9900" stroke-width="2.5" stroke-dasharray="5 4" fill="none" stroke-linecap="round"/>
  <polygon points="187,73 200,80 187,87" fill="#FF9900"/>
  <g transform="translate(215, 35)">
    <circle cx="25" cy="18" r="14" fill="#0F766E"/>
    <path d="M 5 50 Q 25 38, 45 50 L 41 100 Q 41 107, 34 107 L 16 107 Q 9 107, 9 100 Z" fill="#0F766E"/>
    <rect x="48" y="73" width="18" height="28" rx="2.5" fill="#FF9900"/>
    <rect x="53" y="66" width="2.5" height="8" fill="#FF9900"/>
    <rect x="58" y="66" width="2.5" height="8" fill="#FF9900"/>
    <line x1="48" y1="86" x2="66" y2="86" stroke="#0F172A" stroke-width="0.8" opacity="0.4"/>
  </g>
</svg>
