<svg viewBox="0 0 320 180" fill="none" xmlns="http://www.w3.org/2000/svg">
  <line x1="20" y1="160" x2="300" y2="160" stroke="#94A3B8" stroke-width="0.8" stroke-dasharray="3 4" opacity="0.5"/>
  <rect x="14" y="130" width="7" height="30" fill="#94A3B8" opacity="0.4"/>
  <rect x="22" y="138" width="7" height="22" fill="#94A3B8" opacity="0.4"/>
  <rect x="30" y="133" width="6" height="27" fill="#94A3B8" opacity="0.4"/>
  <rect x="284" y="130" width="7" height="30" fill="#94A3B8" opacity="0.4"/>
  <rect x="293" y="140" width="7" height="20" fill="#94A3B8" opacity="0.4"/>
  <rect x="301" y="135" width="6" height="25" fill="#94A3B8" opacity="0.4"/>
  <path d="M 45 130 Q 160 30, 275 130" stroke="#FF9900" stroke-width="3" stroke-dasharray="6 5" fill="none" stroke-linecap="round"/>
  <circle cx="45" cy="130" r="14" fill="#FF9900"/>
  <circle cx="45" cy="130" r="5" fill="#fff"/>
  <circle cx="275" cy="130" r="14" fill="#0F766E"/>
  <circle cx="275" cy="130" r="5" fill="#fff"/>
  <g transform="translate(140, 50) rotate(-4)">
    <rect x="0" y="0" width="40" height="30" rx="4" fill="#FF9900" stroke="#0F172A" stroke-width="0.8"/>
    <line x1="0" y1="11" x2="40" y2="11" stroke="#0F172A" stroke-width="0.8"/>
    <line x1="20" y1="0" x2="20" y2="11" stroke="#0F172A" stroke-width="0.8"/>
    <rect x="14" y="4" width="12" height="4" rx="0.6" fill="#0F172A" opacity="0.4"/>
  </g>
</svg>
