<svg viewBox="0 0 320 180" fill="none" xmlns="http://www.w3.org/2000/svg">
  <defs>
    <pattern id="mapgrid" x="0" y="0" width="28" height="28" patternUnits="userSpaceOnUse">
      <path d="M 28 0 L 0 0 0 28" stroke="#94A3B8" stroke-width="0.6" fill="none" opacity="0.3"/>
    </pattern>
  </defs>
  <rect width="320" height="180" fill="url(#mapgrid)"/>
  <path d="M 50 130 Q 110 40, 175 75" stroke="#FF9900" stroke-width="2" stroke-dasharray="4 4" fill="none" stroke-linecap="round"/>
  <path d="M 50 130 Q 130 155, 270 90" stroke="#0F766E" stroke-width="2" stroke-dasharray="4 4" fill="none" stroke-linecap="round"/>
  <path d="M 175 75 Q 220 50, 270 90" stroke="#FF9900" stroke-width="2" stroke-dasharray="4 4" fill="none" stroke-linecap="round"/>
  <path d="M 110 40 Q 70 80, 50 130" stroke="#0F766E" stroke-width="1.6" stroke-dasharray="3 4" fill="none" opacity="0.6"/>
  <circle cx="50" cy="130" r="11" fill="#FF9900"/>
  <circle cx="50" cy="130" r="4" fill="#fff"/>
  <circle cx="175" cy="75" r="11" fill="#0F766E"/>
  <circle cx="175" cy="75" r="4" fill="#fff"/>
  <circle cx="270" cy="90" r="11" fill="#FF9900"/>
  <circle cx="270" cy="90" r="4" fill="#fff"/>
  <circle cx="110" cy="40" r="8" fill="#0F766E" opacity="0.7"/>
  <circle cx="110" cy="40" r="3" fill="#fff"/>
</svg>
